<svg width="20" height="20" viewBox="0 0 20 20" fill="none" xmlns="http://www.w3.org/2000/svg">
<path d="M18.7981 8.24939C18.6869 7.66564 18.3206 7.28939 17.8619 7.28939H17.7856C17.2246 7.28741 16.6872 7.06368 16.2905 6.667C15.8938 6.27032 15.6701 5.73288 15.6681 5.17189C15.6839 4.89557 15.746 4.62386 15.8519 4.36814C15.961 4.11143 15.979 3.82508 15.9028 3.55673C15.8266 3.28838 15.6609 3.0542 15.4331 2.89314L13.1631 1.62439C12.9207 1.53037 12.6565 1.50759 12.4016 1.55875C12.1467 1.60991 11.9117 1.73287 11.7244 1.91314C11.4856 2.16314 10.6669 2.85939 10.0469 2.85939C9.42688 2.85939 8.59813 2.14564 8.35813 1.89564C8.17089 1.71102 7.93394 1.58493 7.67622 1.53277C7.4185 1.4806 7.15117 1.50462 6.90688 1.60189L4.55563 2.89689C4.33106 3.05732 4.16809 3.2897 4.09375 3.55548C4.0194 3.82126 4.03815 4.10448 4.14688 4.35814C4.25551 4.61478 4.31814 4.88854 4.33188 5.16689C4.3299 5.72766 4.10635 6.26492 3.70993 6.66157C3.31352 7.05821 2.7764 7.28208 2.21563 7.28439H2.12563C1.67688 7.28439 1.31563 7.65939 1.20438 8.24314C1.09593 8.82276 1.03282 9.40996 1.01562 9.99939C1.03187 10.5909 1.09456 11.1802 1.20313 11.7619C1.31438 12.3469 1.68063 12.7244 2.13938 12.7244H2.21563C2.7764 12.7267 3.31352 12.9506 3.70993 13.3472C4.10635 13.7439 4.3299 14.2811 4.33188 14.8419C4.3159 15.1186 4.25379 15.3907 4.14813 15.6469C4.03796 15.9037 4.01932 16.1906 4.09531 16.4595C4.17131 16.7285 4.33733 16.9632 4.56563 17.1244L6.79188 18.3744C7.03647 18.4718 7.30437 18.495 7.56205 18.441C7.81974 18.3869 8.05577 18.2581 8.24063 18.0706C8.54438 17.7419 9.36563 17.0706 9.95438 17.0706C10.6044 17.0706 11.4381 17.8306 11.6794 18.0969C11.8032 18.2275 11.9525 18.3314 12.1181 18.4021C12.2836 18.4728 12.4619 18.5089 12.6419 18.5081C12.814 18.5091 12.9844 18.4738 13.1419 18.4044L15.4506 17.1281C15.6748 16.9674 15.8374 16.7349 15.9115 16.4692C15.9856 16.2035 15.9667 15.9205 15.8581 15.6669C15.75 15.4101 15.6874 15.1364 15.6731 14.8581C15.6751 14.2974 15.8987 13.7601 16.2951 13.3635C16.6915 12.9668 17.2286 12.7429 17.7894 12.7406H17.8756C18.3256 12.7406 18.6869 12.3656 18.7981 11.7794C18.9073 11.1919 18.97 10.5967 18.9856 9.99939C18.9689 9.41205 18.9062 8.82693 18.7981 8.24939ZM17.4744 11.2906L17.4644 11.3519L17.4019 11.3594C16.876 11.4084 16.3685 11.5777 15.9187 11.8544C15.4688 12.1311 15.0887 12.5076 14.8078 12.9549C14.5269 13.4021 14.3528 13.908 14.2988 14.4333C14.2449 14.9587 14.3127 15.4894 14.4969 15.9844L14.5206 16.0494L12.6456 17.0869L12.6019 17.0431C12.3838 16.8237 12.1499 16.6206 11.9019 16.4356C11.2194 15.9356 10.5644 15.6731 9.95688 15.6731C9.34938 15.6731 8.70688 15.9231 8.02563 16.4231C7.77902 16.6034 7.54629 16.8018 7.32938 17.0169L7.28563 17.0606L5.48313 16.0519L5.50563 15.9869C5.64021 15.6215 5.71287 15.2362 5.72063 14.8469C5.71257 13.9856 5.39077 13.1568 4.81552 12.5157C4.24026 11.8747 3.45102 11.4653 2.59563 11.3644L2.53438 11.3569L2.52438 11.2956C2.4516 10.8671 2.41024 10.4339 2.40063 9.99939C2.41109 9.56776 2.45286 9.13747 2.52563 8.71189L2.53563 8.65064H2.59688C3.45205 8.54919 4.241 8.1397 4.81615 7.49874C5.39131 6.85779 5.71329 6.02927 5.72188 5.16814C5.71095 4.779 5.63621 4.3943 5.50063 4.02939L5.47688 3.96439L7.40313 2.90689L7.44563 2.94814C7.66392 3.15795 7.89702 3.35178 8.14313 3.52814C8.81563 4.00564 9.45438 4.24939 10.0469 4.24939C10.6394 4.24939 11.2656 4.01189 11.9306 3.54439C12.1751 3.37052 12.4073 3.18008 12.6256 2.97439L12.6681 2.93439L14.5206 3.96314L14.4969 4.02689C14.363 4.39244 14.2908 4.77768 14.2831 5.16689C14.2917 6.02802 14.6137 6.85654 15.1889 7.49749C15.764 8.13845 16.5529 8.54794 17.4081 8.64939H17.4706L17.4806 8.71064C17.5524 9.13634 17.5942 9.56657 17.6056 9.99814C17.5925 10.4315 17.5486 10.8634 17.4744 11.2906Z" fill="#A6B4CB"/>
<path d="M9.99938 6.83008C9.37236 6.82983 8.75935 7.01554 8.23788 7.36371C7.71641 7.71189 7.30991 8.20689 7.06979 8.78611C6.82967 9.36533 6.76671 10.0027 6.88888 10.6177C7.01106 11.2328 7.31287 11.7977 7.75616 12.2412C8.19944 12.6846 8.76428 12.9867 9.37923 13.1091C9.99418 13.2315 10.6316 13.1688 11.2109 12.9289C11.7903 12.689 12.2854 12.2827 12.6338 11.7614C12.9822 11.24 13.1681 10.6271 13.1681 10.0001C13.1675 9.15976 12.8334 8.35403 12.2394 7.75972C11.6453 7.16541 10.8397 6.83107 9.99938 6.83008ZM9.99938 11.8951C9.62463 11.8948 9.25838 11.7835 8.94691 11.5751C8.63545 11.3667 8.39275 11.0707 8.24952 10.7244C8.10628 10.3781 8.06893 9.99713 8.14219 9.62962C8.21545 9.26211 8.39603 8.92457 8.6611 8.65967C8.92617 8.39477 9.26383 8.21442 9.63139 8.1414C9.99895 8.06838 10.3799 8.10598 10.7261 8.24945C11.0723 8.39291 11.3682 8.6358 11.5763 8.9474C11.7845 9.25901 11.8956 9.62534 11.8956 10.0001C11.895 10.5027 11.6949 10.9845 11.3394 11.3398C10.9839 11.695 10.502 11.8947 9.99938 11.8951Z" fill="#A6B4CB"/>
</svg>
