<svg width="86" height="86" viewBox="0 0 86 86" fill="none" xmlns="http://www.w3.org/2000/svg">
<path d="M43.0041 11.1719C52.9009 11.1719 61.7345 15.6967 67.5761 22.7831L73.0785 21.3095C73.719 21.1388 74.401 21.2291 74.9751 21.5605C75.5491 21.8919 75.9684 22.4375 76.1409 23.0775L81.6617 43.6839C81.7474 44.0007 81.7694 44.3314 81.7266 44.6569C81.6837 44.9823 81.5768 45.296 81.4121 45.5799C81.2488 45.8649 81.0306 46.1147 80.7701 46.3148C80.5096 46.5149 80.212 46.6613 79.8945 46.7455L74.4009 48.2159C71.9129 63.3095 58.8057 74.8279 43.0033 74.8279C33.1057 74.8279 24.2649 70.3015 18.4289 63.2143L12.9225 64.6903C12.282 64.8618 11.5997 64.7719 11.0255 64.4403C10.4514 64.1088 10.0324 63.5627 9.86087 62.9223L4.34007 42.3167C4.25438 41.9998 4.23232 41.6691 4.27516 41.3437C4.318 41.0183 4.4249 40.7046 4.58967 40.4207C4.75305 40.1356 4.9714 39.8858 5.23204 39.6857C5.49268 39.4856 5.79044 39.3392 6.10807 39.2551L11.6001 37.7831C14.0945 22.6911 27.2025 11.1719 43.0041 11.1719ZM73.0889 48.5695L71.6737 48.9487C68.9225 62.2655 57.1369 72.2815 43.0009 72.2815C34.3169 72.2815 26.5201 68.4975 21.1489 62.4863L19.7297 62.8663C25.3433 69.4335 33.6857 73.5991 43.0041 73.5991C58.0017 73.5991 70.4721 62.8127 73.0889 48.5695ZM71.0049 49.1279L21.8169 62.3071C27.0585 68.0575 34.6057 71.6639 42.9953 71.6639C56.7273 71.6639 68.1985 62.0127 71.0049 49.1279ZM50.8049 61.7943L51.0473 63.9647L52.9433 65.0407L50.9769 65.8807L50.5889 68.0071L49.1433 66.3583L47.0049 66.5943L48.0745 64.7351L47.1385 62.7551L49.2457 63.2519L50.8049 61.7943ZM40.7409 61.7247L40.9833 63.8951L42.8793 64.9703L40.9129 65.8103L40.5249 67.9367L39.0793 66.2887L36.9409 66.5239L38.0105 64.6647L37.0745 62.6855L39.1817 63.1815L40.7409 61.7247ZM73.7249 22.2239C73.5969 22.2239 73.4665 22.2407 73.3369 22.2759L6.36647 40.2199C5.97927 40.3239 5.65607 40.5719 5.45607 40.9191C5.25527 41.2655 5.20247 41.6703 5.30567 42.0575L10.8273 62.6639C10.9309 63.0478 11.1826 63.3749 11.527 63.5736C11.8715 63.7723 12.2806 63.8263 12.6649 63.7239L79.6353 45.7799C80.0225 45.6759 80.3457 45.4279 80.5465 45.0807C80.7465 44.7335 80.7993 44.3295 80.6961 43.9423L75.1745 23.3359C75.0885 23.017 74.9 22.7354 74.638 22.5344C74.376 22.3334 74.0551 22.2243 73.7249 22.2239ZM59.4497 56.8159L59.6785 58.9807L61.5881 60.0623L59.6217 60.9023L59.2329 63.0295L57.7881 61.3807L55.6497 61.6159L56.7185 59.7575L55.7825 57.7775L57.8897 58.2735L59.4497 56.8159ZM43.0041 12.4007C28.0057 12.4007 15.5369 23.1935 12.9145 37.4303L14.3289 37.0511C17.0793 23.7343 28.8649 13.7183 43.0009 13.7183C51.6857 13.7183 59.4825 17.5023 64.8481 23.5151L66.2769 23.1311C60.6625 16.5655 52.3201 12.4007 43.0041 12.4007ZM43.0009 14.3359C29.2681 14.3295 17.7961 23.9815 14.9905 36.8743L64.1801 23.6935C58.9329 17.9439 51.3913 14.3359 43.0009 14.3359ZM26.7049 23.4863L28.1249 25.0839L30.2129 24.7847L29.1681 26.6751L30.0913 28.6295L28.0289 28.1967L26.5073 29.7055L26.2721 27.5471L24.4137 26.5287L26.3353 25.6247L26.7049 23.4863ZM35.1457 18.2407L36.5657 19.8383L38.6537 19.5399L37.6097 21.4303L38.5321 23.3847L36.4697 22.9519L34.9481 24.4599L34.7129 22.3023L32.8537 21.2839L34.7769 20.3799L35.1457 18.2407ZM44.9993 17.9927L46.4193 19.5903L48.5073 19.2847L47.4633 21.1823L48.3857 23.1359L46.3233 22.7039L44.8025 24.2119L44.5665 22.0543L42.7081 21.0351L44.6305 20.1311L44.9993 17.9927Z" fill="#E95454"/>
<path d="M26.6236 49.7187L28.4219 49.6292C28.4696 51.8115 28.2128 53.7856 27.6658 55.5271L25.8367 54.9622C26.3889 53.2401 26.6447 51.4939 26.6236 49.7187ZM33.8422 46.9102C34.7211 47.7924 35.5383 48.7533 36.3042 49.8316L34.9264 50.9471C34.1048 49.7389 33.2476 48.7059 32.3983 47.8571L33.8422 46.9102ZM39.7651 45.7544C41.0686 47.061 42.3118 48.5287 43.4458 50.1294L42.0011 51.3043C40.7432 49.5506 39.4509 48.0546 38.1578 46.7866L39.7651 45.7544ZM37.8759 53.4477L33.0663 54.7394C31.7529 55.0921 30.9146 54.5925 30.5618 53.279L29.3635 48.8171L31.1791 48.3295L32.2737 52.4051C32.3827 52.8107 32.6715 52.9609 33.1544 52.8312L37.0561 51.7833C37.3652 51.7003 37.5658 51.5222 37.6299 51.2979C37.7466 51.0388 37.6862 50.3509 37.4432 49.215L39.3372 49.3276C39.634 51.0496 39.6527 52.1214 39.3739 52.5483C39.0899 52.956 38.5906 53.2557 37.8759 53.4477ZM22.6411 39.4398L38.5571 35.1653L39.0136 36.865L33.8564 38.2501L35.4023 44.0061L41.1969 42.4499L41.6638 44.1883L24.473 48.8052L24.0061 47.0668L29.8201 45.5054L28.2742 39.7493L23.0977 41.1396L22.6411 39.4398ZM31.5778 45.0333L33.6446 44.4782L32.0987 38.7222L30.0319 39.2773L31.5778 45.0333ZM36.4977 38.3691L38.1518 38.3597C38.1263 39.9611 37.9524 41.3953 37.5965 42.692L35.9499 42.5751C36.2596 41.4151 36.4439 40.0195 36.4977 38.3691ZM26.0338 41.2001C26.9142 42.1648 27.7781 43.2995 28.6307 44.6237L27.1699 45.4302C26.4167 44.245 25.5773 43.1244 24.6569 42.0876L26.0338 41.2001ZM46.8845 35.0203L43.8713 35.8296L43.4563 34.2844L49.8304 32.5725C49.5877 32.2856 49.3502 32.0181 49.123 31.7891L51.0295 30.9458C51.2826 31.2713 51.5654 31.6302 51.8392 32.033L58.5224 30.2381L58.9374 31.7833L55.8662 32.6081L55.6174 33.9175L60.1565 32.6984L60.5819 34.2823L43.7001 38.8162L43.2747 37.2324L47.6594 36.0548L46.8845 35.0203ZM49.5716 35.5412L53.7051 34.4311L53.954 33.1217L48.7968 34.5068L49.5716 35.5412ZM45.9268 39.088L58.7909 35.633L60.4095 41.6595L47.5453 45.1144L45.9268 39.088ZM58.2396 40.7512L57.9802 39.7854L48.7088 42.2755L48.9682 43.2413L58.2396 40.7512ZM48.356 40.962L57.6275 38.472L57.3733 37.5255L48.1019 40.0156L48.356 40.962ZM47.0137 46.0648L48.8893 45.9546C48.8548 47.5998 48.5895 49.0793 48.0984 50.4123L46.25 49.8526C46.7425 48.602 46.9876 47.3558 47.0137 46.0648ZM58.1134 47.9918L53.4004 49.2575C51.9131 49.657 50.9975 49.1781 50.6448 47.8646L49.9808 45.3922L51.835 44.8942L52.3953 46.9803C52.525 47.4632 52.8822 47.6365 53.4809 47.4757L57.3247 46.4433C57.6724 46.3499 57.9028 46.2052 58.0017 46.0337C58.1481 45.808 58.1485 45.2695 57.9975 44.3989L59.8863 44.4921C60.0949 45.8857 60.0476 46.7889 59.6952 47.1735C59.3905 47.5038 58.8667 47.7895 58.1134 47.9918ZM54.4617 43.3397C55.4419 43.9048 56.2029 44.4252 56.7693 44.9151L55.5287 46.3873C54.9133 45.8692 54.1226 45.3153 53.1617 44.745L54.4617 43.3397ZM60.5971 42.1268C61.9967 43.097 63.1036 43.9801 63.9128 44.7568L62.6721 46.229C61.7932 45.3468 60.6952 44.4198 59.3588 43.4534L60.5971 42.1268Z" fill="#E95454"/>
</svg>
