<svg width="86" height="86" viewBox="0 0 86 86" fill="none" xmlns="http://www.w3.org/2000/svg">
<path d="M43.0041 11.1719C52.9009 11.1719 61.7345 15.6967 67.5761 22.7831L73.0785 21.3095C73.719 21.1388 74.401 21.2291 74.9751 21.5605C75.5491 21.8919 75.9684 22.4375 76.1409 23.0775L81.6617 43.6839C81.7474 44.0007 81.7694 44.3314 81.7266 44.6569C81.6837 44.9823 81.5768 45.296 81.4121 45.5799C81.2488 45.8649 81.0306 46.1147 80.7701 46.3148C80.5096 46.5149 80.212 46.6613 79.8945 46.7455L74.4009 48.2159C71.9129 63.3095 58.8057 74.8279 43.0033 74.8279C33.1057 74.8279 24.2649 70.3015 18.4289 63.2143L12.9225 64.6903C12.282 64.8618 11.5997 64.7719 11.0255 64.4403C10.4514 64.1088 10.0324 63.5627 9.86087 62.9223L4.34007 42.3167C4.25438 41.9998 4.23232 41.6691 4.27516 41.3437C4.318 41.0183 4.4249 40.7046 4.58967 40.4207C4.75305 40.1356 4.9714 39.8858 5.23204 39.6857C5.49268 39.4856 5.79044 39.3392 6.10807 39.2551L11.6001 37.7831C14.0945 22.6911 27.2025 11.1719 43.0041 11.1719ZM73.0889 48.5695L71.6737 48.9487C68.9225 62.2655 57.1369 72.2815 43.0009 72.2815C34.3169 72.2815 26.5201 68.4975 21.1489 62.4863L19.7297 62.8663C25.3433 69.4335 33.6857 73.5991 43.0041 73.5991C58.0017 73.5991 70.4721 62.8127 73.0889 48.5695ZM71.0049 49.1279L21.8169 62.3071C27.0585 68.0575 34.6057 71.6639 42.9953 71.6639C56.7273 71.6639 68.1985 62.0127 71.0049 49.1279ZM50.8049 61.7943L51.0473 63.9647L52.9433 65.0407L50.9769 65.8807L50.5889 68.0071L49.1433 66.3583L47.0049 66.5943L48.0745 64.7351L47.1385 62.7551L49.2457 63.2519L50.8049 61.7943ZM40.7409 61.7247L40.9833 63.8951L42.8793 64.9703L40.9129 65.8103L40.5249 67.9367L39.0793 66.2887L36.9409 66.5239L38.0105 64.6647L37.0745 62.6855L39.1817 63.1815L40.7409 61.7247ZM73.7249 22.2239C73.5969 22.2239 73.4665 22.2407 73.3369 22.2759L6.36647 40.2199C5.97927 40.3239 5.65607 40.5719 5.45607 40.9191C5.25527 41.2655 5.20247 41.6703 5.30567 42.0575L10.8273 62.6639C10.9309 63.0478 11.1826 63.3749 11.527 63.5736C11.8715 63.7723 12.2806 63.8263 12.6649 63.7239L79.6353 45.7799C80.0225 45.6759 80.3457 45.4279 80.5465 45.0807C80.7465 44.7335 80.7993 44.3295 80.6961 43.9423L75.1745 23.3359C75.0885 23.017 74.9 22.7354 74.638 22.5344C74.376 22.3334 74.0551 22.2243 73.7249 22.2239ZM59.4497 56.8159L59.6785 58.9807L61.5881 60.0623L59.6217 60.9023L59.2329 63.0295L57.7881 61.3807L55.6497 61.6159L56.7185 59.7575L55.7825 57.7775L57.8897 58.2735L59.4497 56.8159ZM43.0041 12.4007C28.0057 12.4007 15.5369 23.1935 12.9145 37.4303L14.3289 37.0511C17.0793 23.7343 28.8649 13.7183 43.0009 13.7183C51.6857 13.7183 59.4825 17.5023 64.8481 23.5151L66.2769 23.1311C60.6625 16.5655 52.3201 12.4007 43.0041 12.4007ZM43.0009 14.3359C29.2681 14.3295 17.7961 23.9815 14.9905 36.8743L64.1801 23.6935C58.9329 17.9439 51.3913 14.3359 43.0009 14.3359ZM26.7049 23.4863L28.1249 25.0839L30.2129 24.7847L29.1681 26.6751L30.0913 28.6295L28.0289 28.1967L26.5073 29.7055L26.2721 27.5471L24.4137 26.5287L26.3353 25.6247L26.7049 23.4863ZM35.1457 18.2407L36.5657 19.8383L38.6537 19.5399L37.6097 21.4303L38.5321 23.3847L36.4697 22.9519L34.9481 24.4599L34.7129 22.3023L32.8537 21.2839L34.7769 20.3799L35.1457 18.2407ZM44.9993 17.9927L46.4193 19.5903L48.5073 19.2847L47.4633 21.1823L48.3857 23.1359L46.3233 22.7039L44.8025 24.2119L44.5665 22.0543L42.7081 21.0351L44.6305 20.1311L44.9993 17.9927Z" fill="#52C41A"/>
<path d="M17.1003 40.2438L18.9546 39.7457L23.7375 57.5546L21.8832 58.0527L20.7004 53.6487L15.0217 55.1739L14.5496 53.4162L20.2284 51.891L19.5177 49.2448L14.7274 50.5313L14.2502 48.7543L19.0404 47.4678L18.3505 44.8988L13.116 46.3046L12.6439 44.5469L17.8784 43.1411L17.1003 40.2438ZM21.6201 39.0299L23.4744 38.5318L24.2525 41.4292L29.4677 40.0285L29.9398 41.7862L24.7246 43.1869L25.4145 45.7558L30.2048 44.4693L30.682 46.2464L25.8918 47.5329L26.6025 50.1791L32.1267 48.6955L32.5988 50.4532L27.0746 51.9368L28.2573 56.3407L26.403 56.8388L21.6201 39.0299ZM36.7642 46.9944L38.5625 46.9048C38.6102 49.0872 38.3535 51.0613 37.8065 52.8028L35.9774 52.2379C36.5296 50.5157 36.7854 48.7696 36.7642 46.9944ZM43.9828 44.1859C44.8617 45.0681 45.6789 46.029 46.4448 47.1073L45.067 48.2228C44.2455 47.0146 43.3882 45.9816 42.539 45.1328L43.9828 44.1859ZM49.9057 43.0301C51.2092 44.3367 52.4525 45.8044 53.5865 47.4051L52.1418 48.58C50.8839 46.8263 49.5916 45.3303 48.2984 44.0623L49.9057 43.0301ZM48.0165 50.7234L43.207 52.0151C41.8935 52.3678 41.0552 51.8682 40.7025 50.5547L39.5042 46.0928L41.3198 45.6052L42.4144 49.6808C42.5233 50.0864 42.8122 50.2366 43.2951 50.1069L47.1968 49.059C47.5058 48.976 47.7065 48.7979 47.7705 48.5736C47.8873 48.3144 47.8268 47.6266 47.5839 46.4907L49.4779 46.6033C49.7747 48.3253 49.7934 49.3971 49.5146 49.824C49.2306 50.2316 48.7312 50.5314 48.0165 50.7234ZM32.7818 36.7155L48.6978 32.441L49.1543 34.1407L43.9971 35.5258L45.543 41.2818L51.3376 39.7256L51.8045 41.464L34.6137 46.0809L34.1468 44.3425L39.9608 42.781L38.4149 37.025L33.2383 38.4153L32.7818 36.7155ZM41.7185 42.309L43.7852 41.7539L42.2393 35.9979L40.1726 36.553L41.7185 42.309ZM46.6383 35.6448L48.2925 35.6354C48.267 37.2368 48.093 38.671 47.7372 39.9677L46.0905 39.8508C46.4002 38.6908 46.5846 37.2952 46.6383 35.6448ZM36.1745 38.4758C37.0548 39.4405 37.9187 40.5752 38.7714 41.8994L37.3106 42.7059C36.5574 41.5207 35.718 40.4 34.7976 39.3633L36.1745 38.4758ZM57.0252 32.296L54.012 33.1053L53.597 31.5601L59.9711 29.8482C59.7284 29.5613 59.4909 29.2937 59.2637 29.0648L61.1702 28.2215C61.4233 28.547 61.7061 28.9059 61.9799 29.3086L68.6631 27.5137L69.0781 29.059L66.0069 29.8838L65.758 31.1932L70.2972 29.9741L70.7225 31.558L53.8408 36.0919L53.4154 34.5081L57.8 33.3305L57.0252 32.296ZM59.7123 32.8169L63.8458 31.7068L64.0947 30.3974L58.9374 31.7825L59.7123 32.8169ZM56.0675 36.3637L68.9316 32.9087L70.5501 38.9352L57.686 42.3901L56.0675 36.3637ZM68.3803 38.0269L68.1209 37.0611L58.8495 39.5512L59.1088 40.5169L68.3803 38.0269ZM58.4967 38.2377L67.7682 35.7477L67.514 34.8012L58.2425 37.2913L58.4967 38.2377ZM57.1543 43.3405L59.0299 43.2303C58.9955 44.8755 58.7301 46.355 58.2391 47.688L56.3907 47.1283C56.8831 45.8777 57.1283 44.6315 57.1543 43.3405ZM68.254 45.2675L63.541 46.5332C62.0537 46.9327 61.1382 46.4538 60.7854 45.1403L60.1214 42.6679L61.9757 42.1699L62.536 44.256C62.6657 44.7389 63.0228 44.9122 63.6216 44.7513L67.4654 43.719C67.8131 43.6256 68.0434 43.4809 68.1423 43.3094C68.2888 43.0837 68.2891 42.5452 68.1381 41.6746L70.027 41.7678C70.2356 43.1614 70.1882 44.0646 69.8359 44.4491C69.5312 44.7795 69.0073 45.0651 68.254 45.2675ZM64.6024 40.6154C65.5825 41.1805 66.3435 41.7009 66.91 42.1908L65.6694 43.6629C65.0539 43.1448 64.2632 42.591 63.3024 42.0207L64.6024 40.6154ZM70.7378 39.4025C72.1373 40.3727 73.2443 41.2558 74.0534 42.0325L72.8128 43.5047C71.9339 42.6224 70.8359 41.6955 69.4995 40.7291L70.7378 39.4025Z" fill="#52C41A"/>
</svg>
