<svg width="40" height="40" viewBox="0 0 40 40" fill="none" xmlns="http://www.w3.org/2000/svg">
<rect width="40" height="40" rx="20" fill="url(#paint0_linear_11384_239675)"/>
<g clip-path="url(#clip0_11384_239675)">
<path d="M9.71087 27.0293C9.34354 27.8876 7.99609 28.1017 7.99609 28.1017H11.4239C11.4239 28.1017 10.0817 27.8876 9.71087 27.0293Z" fill="white"/>
<path d="M13.1445 27.0293C12.7771 27.8876 11.4297 28.1017 11.4297 28.1017H14.8593C14.8593 28.1017 13.5118 27.8876 13.1445 27.0293Z" fill="white"/>
<path d="M19.9999 27.0293C19.6326 27.8876 18.2852 28.1017 18.2852 28.1017H21.7217C21.7217 28.1017 20.3673 27.8876 19.9999 27.0293Z" fill="white"/>
<path d="M26.8593 27.0293C26.492 27.8876 25.1445 28.1017 25.1445 28.1017H28.5724C28.5724 28.1017 27.2249 27.8876 26.8593 27.0293Z" fill="white"/>
<path d="M30.2851 27.0293C29.9178 27.8876 28.5703 28.1017 28.5703 28.1017H31.9929C31.9929 28.1017 30.6524 27.8876 30.2851 27.0293Z" fill="white"/>
<path d="M26.9 22.3012L27.2221 17.8915L27.7078 14.112L27.3787 14.4358C27.102 14.6549 26.7544 14.7646 26.4021 14.7439V12.1326H24.313V10H15.6799V12.1326H13.5995V14.7439C13.2455 14.765 12.8961 14.6554 12.6177 14.4358L12.2852 14.0963L12.7778 17.9263L13.0929 22.3343C13.6512 24.3043 14.665 26.1154 16.0525 27.6214C15.6878 27.8586 15.2804 28.0224 14.853 28.1036H16.519C17.508 29.0616 18.6654 29.8289 19.9329 30.3668L19.9956 30.3929L20.0583 30.3668C21.3251 29.8294 22.4814 29.0621 23.4687 28.1036H25.1382C24.7094 28.0226 24.3006 27.8582 23.9352 27.6196C25.331 26.1068 26.3472 24.2839 26.9 22.3012ZM24.3217 12.4512H26.0835V14.7144C25.8732 14.6847 25.667 14.6309 25.469 14.5542L23.1745 13.5758L22.8019 13.4156L22.4276 13.2572L22.2448 13.1824V12.4512H24.3339H24.3217ZM20.1558 10.3186H24.0031V12.1326H22.2448V11.1542H20.1558V10.3186ZM19.9973 11.4728H21.9123V13.0396L20.1558 12.2945L20.0739 12.2597L19.9973 12.2214L19.9573 12.2423L19.8389 12.2928L18.0789 13.0431V11.4763H19.9939L19.9973 11.4728ZM15.9933 10.3186H19.8424V11.1542H17.7533V12.1326H15.9985L15.9933 10.3186ZM13.9042 12.4512H17.7463V13.1806L17.5531 13.2642L17.1806 13.4226L16.808 13.5828L14.517 14.5612C14.3192 14.6364 14.1137 14.6895 13.9042 14.7196V12.4512ZM23.4147 27.0295C23.0491 27.8877 21.7017 28.1018 21.7017 28.1018H22.983C22.0987 28.9095 21.0862 29.5643 19.9869 30.0395C18.8868 29.5638 17.8732 28.9091 16.9873 28.1018H18.2721C18.2721 28.1018 16.9247 27.8877 16.5573 27.0295C16.4919 27.1732 16.3997 27.3031 16.2857 27.4125C14.9352 25.9521 13.9445 24.1965 13.3924 22.2855L13.1208 18.466L13.0825 17.9437C13.1551 17.3568 13.3251 16.786 13.5856 16.255C13.6329 16.1676 13.6858 16.0832 13.744 16.0026C13.7928 15.9361 13.8463 15.8733 13.9042 15.8146C14.0303 15.6767 14.1898 15.5736 14.3673 15.5152L17.7463 14.5141L17.9065 14.4671L18.0649 14.4201L19.052 14.1277L19.348 16.8435L19.3654 17.0036L19.3811 17.1621L19.9782 22.6511V22.7085V22.7225L20.5788 17.1621L20.5962 17.0036L20.6136 16.8435L20.9078 14.1277L21.8984 14.4219L22.0586 14.4689L22.217 14.5159L25.5926 15.5152C25.772 15.5754 25.9331 15.6802 26.0609 15.8198C26.1291 15.8748 26.192 15.936 26.2489 16.0026C26.3079 16.0843 26.3614 16.1698 26.4091 16.2585C26.666 16.7886 26.8343 17.3574 26.907 17.942L26.5971 22.0958L26.5866 22.2559C26.243 23.4869 25.711 24.6573 25.0094 25.7255C24.623 26.3249 24.185 26.8894 23.7002 27.4125C23.5861 27.3033 23.4939 27.1733 23.4286 27.0295H23.4147Z" fill="white"/>
</g>
<defs>
<linearGradient id="paint0_linear_11384_239675" x1="5.52956" y1="5.52956" x2="34.6019" y2="34.6019" gradientUnits="userSpaceOnUse">
<stop stop-color="#2D94FF"/>
<stop offset="1" stop-color="#2177D1"/>
</linearGradient>
<clipPath id="clip0_11384_239675">
<rect width="24" height="24" fill="white" transform="translate(8 8)"/>
</clipPath>
</defs>
</svg>
