<?xml version="1.0" encoding="UTF-8"?>
<svg id="_图层_2" data-name="图层 2" xmlns="http://www.w3.org/2000/svg" viewBox="0 0 112.71 39.46">
  <defs>
    <style>
      .cls-1 {
        fill: #0b0e48;
      }
    </style>
  </defs>
  <g id="_图层_1-2" data-name="图层 1">
    <g>
      <g>
        <g>
          <path class="cls-1" d="m52.76,32.9v-6.81h-2.23v-.91h5.36v.91h-2.24v6.81h-.89Z"/>
          <path class="cls-1" d="m59.01,31.1l.86.12c-.14.57-.39,1.02-.75,1.33-.37.32-.83.47-1.4.47-.72,0-1.28-.25-1.7-.76-.42-.5-.63-1.21-.63-2.12s.21-1.67.64-2.19c.42-.52.97-.78,1.65-.78s1.19.25,1.61.76c.42.51.62,1.23.62,2.15,0,.06,0,.14,0,.25h-3.65c.03.61.18,1.08.46,1.41.27.33.62.49,1.02.49.3,0,.56-.09.78-.27.22-.18.39-.47.51-.87Zm-2.73-1.53h2.74c-.04-.47-.14-.82-.31-1.06-.26-.37-.61-.55-1.03-.55-.38,0-.7.15-.96.44-.26.29-.4.68-.43,1.17Z"/>
          <path class="cls-1" d="m60.91,32.9v-5.59h.75v.8c.36-.61.88-.92,1.56-.92.3,0,.57.06.81.18.25.12.43.28.56.48.12.2.21.43.26.7.03.18.05.48.05.92v3.44h-.83v-3.4c0-.39-.03-.67-.1-.87-.06-.19-.18-.34-.34-.46-.16-.11-.36-.17-.58-.17-.35,0-.66.13-.92.38-.26.26-.39.74-.39,1.46v3.05h-.83Z"/>
          <path class="cls-1" d="m65.83,31.24l.82-.15c.05.38.17.66.39.86.21.2.51.3.88.3s.66-.09.85-.27c.18-.18.28-.39.28-.62,0-.21-.08-.38-.24-.51-.11-.08-.4-.19-.85-.32-.61-.18-1.03-.33-1.27-.46-.24-.13-.41-.31-.54-.53-.12-.23-.18-.48-.18-.75,0-.25.05-.48.15-.69.1-.21.24-.39.41-.53.13-.11.31-.2.53-.28.22-.08.46-.11.72-.11.38,0,.72.06,1.01.19.29.13.51.3.64.51.14.22.23.5.29.87l-.81.13c-.04-.29-.14-.51-.32-.67-.18-.16-.43-.24-.75-.24-.38,0-.65.07-.82.22-.16.14-.24.31-.24.51,0,.12.03.23.1.33.07.1.17.19.32.25.08.03.33.12.73.24.59.18,1,.33,1.23.44.23.11.41.28.55.5.13.22.2.49.2.81s-.08.61-.24.89c-.16.28-.39.5-.7.65s-.65.23-1.03.23c-.64,0-1.12-.15-1.46-.45-.33-.3-.55-.75-.64-1.34Z"/>
          <path class="cls-1" d="m70.58,30.11c0-1.04.25-1.8.76-2.3.42-.41.94-.62,1.54-.62.67,0,1.22.25,1.65.76.43.5.64,1.2.64,2.09,0,.72-.09,1.29-.28,1.7-.19.41-.46.73-.83.96-.36.23-.76.34-1.18.34-.69,0-1.24-.25-1.66-.75-.42-.5-.63-1.23-.63-2.17Zm.85,0c0,.72.14,1.25.41,1.61.27.36.62.53,1.03.53s.75-.18,1.03-.54c.27-.36.41-.9.41-1.64,0-.69-.14-1.22-.41-1.57-.28-.36-.62-.53-1.03-.53s-.76.18-1.03.53-.41.89-.41,1.61Z"/>
          <path class="cls-1" d="m76.14,32.9v-5.59h.75v.85c.19-.4.37-.66.53-.78.16-.13.34-.19.53-.19.28,0,.56.1.85.31l-.29.88c-.2-.14-.41-.21-.61-.21-.18,0-.34.06-.49.19-.14.12-.25.3-.31.52-.09.34-.14.71-.14,1.11v2.93h-.83Z"/>
          <path class="cls-1" d="m79.09,30.42l.84-.08c.04.39.13.7.28.95.15.25.37.45.68.6.31.15.65.23,1.04.23.34,0,.64-.06.9-.17.26-.12.46-.27.58-.48.13-.2.19-.42.19-.66s-.06-.45-.18-.63c-.12-.18-.33-.33-.61-.46-.18-.08-.58-.21-1.2-.38-.62-.17-1.06-.33-1.31-.48-.32-.19-.56-.43-.72-.72-.16-.29-.24-.61-.24-.96,0-.39.1-.75.29-1.09.19-.34.48-.6.85-.77.37-.18.79-.26,1.24-.26.5,0,.94.09,1.33.28.38.18.68.46.88.81.21.36.32.76.33,1.22l-.86.07c-.05-.49-.2-.86-.47-1.11-.27-.25-.66-.37-1.18-.37s-.94.11-1.18.34c-.25.23-.37.5-.37.82,0,.28.09.51.26.68.17.18.62.36,1.35.55.73.19,1.23.35,1.5.49.39.21.68.47.87.79.19.32.28.68.28,1.1s-.1.8-.31,1.16c-.21.36-.5.65-.89.85-.39.2-.82.3-1.3.3-.61,0-1.12-.1-1.54-.31-.41-.2-.74-.51-.97-.92s-.36-.87-.37-1.39Z"/>
          <path class="cls-1" d="m88.95,31.1l.86.12c-.14.57-.39,1.02-.75,1.33-.37.32-.83.47-1.4.47-.72,0-1.28-.25-1.7-.76s-.63-1.21-.63-2.12.21-1.67.64-2.19c.42-.52.97-.78,1.65-.78s1.19.25,1.61.76c.42.51.62,1.23.62,2.15,0,.06,0,.14,0,.25h-3.65c.03.61.18,1.08.46,1.41.27.33.62.49,1.02.49.3,0,.56-.09.78-.27.22-.18.39-.47.51-.87Zm-2.73-1.53h2.74c-.04-.47-.14-.82-.31-1.06-.26-.37-.61-.55-1.03-.55-.38,0-.7.15-.96.44-.26.29-.4.68-.43,1.17Z"/>
          <path class="cls-1" d="m94.04,30.86l.82.12c-.09.64-.32,1.15-.69,1.51-.37.36-.82.55-1.35.55-.67,0-1.21-.25-1.62-.75-.41-.5-.61-1.22-.61-2.15,0-.6.09-1.13.26-1.59.18-.45.44-.79.8-1.02.36-.23.75-.34,1.17-.34.53,0,.97.15,1.31.46s.56.74.65,1.31l-.81.14c-.08-.38-.21-.66-.41-.85-.2-.19-.43-.28-.71-.28-.42,0-.76.17-1.02.51s-.39.88-.39,1.62.13,1.3.38,1.64c.25.34.58.51.99.51.33,0,.6-.11.82-.34.22-.23.36-.58.42-1.05Z"/>
          <path class="cls-1" d="m98.78,32.9v-.82c-.38.63-.9.95-1.55.95-.29,0-.56-.06-.81-.19s-.44-.29-.56-.48c-.12-.19-.21-.43-.26-.7-.03-.19-.05-.48-.05-.88v-3.47h.83v3.1c0,.5.02.83.05,1,.05.25.16.45.33.59.17.14.38.21.63.21s.48-.07.7-.22c.22-.15.37-.34.46-.6.09-.25.14-.62.14-1.09v-3h.83v5.59h-.74Z"/>
          <path class="cls-1" d="m100.82,32.9v-5.59h.75v.85c.19-.4.37-.66.53-.78.16-.13.34-.19.53-.19.28,0,.56.1.85.31l-.29.88c-.2-.14-.41-.21-.61-.21-.18,0-.34.06-.49.19-.14.12-.25.3-.31.52-.09.34-.14.71-.14,1.11v2.93h-.83Z"/>
          <path class="cls-1" d="m103.98,26.27v-1.09h.83v1.09h-.83Zm0,6.63v-5.59h.83v5.59h-.83Z"/>
          <path class="cls-1" d="m107.88,32.06l.12.84c-.23.06-.44.08-.63.08-.3,0-.54-.05-.7-.16-.17-.11-.28-.25-.35-.43-.07-.18-.1-.55-.1-1.12v-3.22h-.61v-.74h.61v-1.39l.83-.57v1.95h.84v.74h-.84v3.27c0,.27.01.44.04.52.03.08.08.14.14.18.07.05.16.07.28.07.09,0,.21-.01.36-.04Z"/>
          <path class="cls-1" d="m108.66,35.06l-.09-.89c.18.06.34.08.48.08.18,0,.33-.04.44-.11.11-.07.2-.17.27-.29.05-.09.14-.33.25-.71.02-.05.04-.13.07-.23l-1.86-5.6h.89l1.02,3.24c.13.41.25.84.36,1.3.1-.44.21-.86.34-1.27l1.05-3.26h.83l-1.86,5.69c-.2.61-.36,1.04-.47,1.27-.15.31-.32.54-.51.69-.19.15-.42.22-.68.22-.16,0-.34-.04-.54-.12Z"/>
        </g>
        <g>
          <path class="cls-1" d="m55.85,15.17c-.5.17-.98.33-1.49.5v3.86c0,.83-.16,1.26-.64,1.53-.47.3-1.15.34-2.16.34-.05-.44-.26-1.15-.48-1.62.56.03,1.12.03,1.31.02.19,0,.26-.05.26-.25v-3.3l-1.34.45-.48-1.78c.51-.14,1.14-.31,1.82-.51v-2.77h-1.6v-1.71h1.6v-2.94h1.71v2.94h1.26v1.71h-1.26v2.23l1.17-.36.33,1.67Zm6.4,1.01c.79,1.18,1.99,2.29,3.19,2.93-.4.33-.95.98-1.23,1.43-1.06-.73-2.09-1.87-2.9-3.13v3.94h-1.76v-3.91c-.9,1.35-2.07,2.51-3.36,3.19-.25-.4-.76-1.06-1.14-1.4,1.42-.61,2.71-1.76,3.57-3.05h-2.65v-1.65h3.58v-1.54h1.76v1.54h3.66v1.65h-2.73Zm-2.13-5.67c-.76,1.34-2.01,2.71-3.13,3.55-.25-.33-.89-1-1.26-1.31,1.06-.67,2.13-1.73,2.76-2.8l1.64.56Zm-2.62.36h-1.49v-3.18h8.88v3.08h-1.57v-1.51h-5.81v1.6Zm4.53-1.06c1.04.92,2.34,2.21,2.94,3.1l-1.43,1c-.54-.87-1.79-2.24-2.85-3.19l1.34-.9Z"/>
          <path class="cls-1" d="m76.47,18.66c1.59.48,3.27,1.12,4.3,1.62l-1.54,1.25c-1.03-.56-2.77-1.32-4.48-1.84l1-1.03h-4.55l1.45,1.01c-1.23.75-3.16,1.49-4.7,1.87-.3-.36-.86-.92-1.26-1.26,1.51-.34,3.33-1.01,4.33-1.62h-4.25v-1.53h2.07v-6.85h3.72c.05-.22.09-.45.14-.7h-5.51v-1.54h5.73c.03-.39.08-.76.09-1.09l1.95.19-.16.9h5.43v1.54h-5.73c-.06.25-.09.48-.14.7h4.24v6.85h2.01v1.53h-4.13Zm-5.86-7.23v.67h6.1v-.67h-6.1Zm6.1,1.71h-6.1v.59h6.1v-.59Zm-6.1,1.62v.61h6.1v-.61h-6.1Zm0,2.37h6.1v-.72h-6.1v.72Z"/>
          <path class="cls-1" d="m87.1,16.91c-.19-.44-.56-1.09-.93-1.71v6.32h-1.79v-5.61c-.51,1.2-1.09,2.3-1.7,3.08-.17-.53-.58-1.29-.86-1.76.87-1,1.74-2.66,2.3-4.17h-2.1v-1.73h2.35v-1.76c-.61.09-1.18.19-1.76.25-.06-.42-.3-1.03-.5-1.43,1.78-.26,3.72-.75,5.01-1.28l1.04,1.51c-.61.23-1.29.42-2.01.58v2.13h2.06v1.73h-2.06v.12c.45.44,1.73,1.9,2.02,2.26l-1.09,1.46Zm7.68.67v3.92h-1.82v-3.6l-4.7.81-.3-1.76,5-.86V6.98h1.82v8.81l1.54-.26.3,1.73-1.84.33Zm-3.91-2.16c-.48-.69-1.57-1.68-2.48-2.38l1.18-1.06c.89.62,2.04,1.59,2.55,2.26l-1.26,1.18Zm.4-4.11c-.44-.67-1.45-1.67-2.32-2.34l1.21-1.06c.84.64,1.93,1.56,2.4,2.24l-1.29,1.15Z"/>
          <path class="cls-1" d="m102.98,15.3c-.54.16-1.11.31-1.67.45v3.72c0,.9-.17,1.34-.7,1.64-.51.28-1.26.33-2.35.33-.08-.47-.31-1.2-.53-1.68.61.02,1.25.02,1.45.02.23,0,.3-.08.3-.31v-3.21l-1.51.37-.48-1.76c.58-.11,1.25-.26,1.99-.45v-2.76h-1.79v-1.71h1.79v-2.96h1.84v2.96h1.53v1.71h-1.53v2.3l1.43-.36.23,1.7Zm8.63-2.1c-.59,2.16-1.59,3.86-2.9,5.17,1.01.72,2.21,1.23,3.6,1.57-.39.37-.92,1.12-1.18,1.6-1.51-.45-2.8-1.09-3.88-1.96-1.21.84-2.58,1.46-4.1,1.92-.2-.5-.65-1.28-1-1.68,1.37-.33,2.63-.83,3.72-1.53-.92-1.04-1.65-2.27-2.21-3.71l.47-.14h-.81v-1.67h3.07v-1.87h-3.35v-1.71h3.35v-2.23h1.84v2.23h3.49v1.71h-3.49v1.87h1.87l.33-.08,1.18.5Zm-6.14,1.25c.44,1.03,1.06,1.96,1.84,2.76.81-.78,1.48-1.7,1.95-2.76h-3.78Z"/>
        </g>
      </g>
      <g>
        <path class="cls-1" d="m23.53,6.98h-8.71V0h8.71v6.98Zm-8.04-.67h7.38V.67h-7.38v5.64Z"/>
        <path class="cls-1" d="m31.58,6.98h-8.71V0h8.71v6.98Zm-8.04-.67h7.38V.67h-7.38v5.64Z"/>
        <polygon class="cls-1" points="11.46 10.21 10.8 10.21 10.8 4.12 19.17 4.12 19.17 4.79 11.46 4.79 11.46 10.21"/>
        <polygon class="cls-1" points="35.6 10.18 34.93 10.18 34.93 4.79 27.22 4.79 27.22 4.12 35.6 4.12 35.6 10.18"/>
        <path class="cls-1" d="m27.55,7.11h-8.71V2.23h8.71v4.88Zm-8.04-.67h7.38v-3.55h-7.38v3.55Z"/>
      </g>
      <path class="cls-1" d="m23.2,39.46l-.13-.06c-10.62-4.49-13.22-15.42-13.25-15.53v-.05s-.9-12.48-.9-12.48l14.28-7.05,14.28,7.05-.92,12.52c-.02.11-2.61,11.06-13.23,15.55l-.13.06Zm-12.72-15.71c.14.56,2.76,10.7,12.72,14.99,9.97-4.29,12.57-14.45,12.7-15l.88-11.99-13.58-6.7-13.58,6.7.86,12.01Z"/>
      <g>
        <path class="cls-1" d="m3.31,32.94c-.71,1.66-3.31,2.08-3.31,2.08h6.63s-2.6-.41-3.31-2.08Z"/>
        <path class="cls-1" d="m9.94,32.94c-.71,1.66-3.31,2.08-3.31,2.08h6.63s-2.6-.41-3.31-2.08Z"/>
        <path class="cls-1" d="m16.57,32.94c-.71,1.66-3.31,2.08-3.31,2.08h6.63s-2.6-.41-3.31-2.08Z"/>
        <path class="cls-1" d="m23.2,32.94c-.71,1.66-3.31,2.08-3.31,2.08h6.63s-2.6-.41-3.31-2.08Z"/>
        <path class="cls-1" d="m29.82,32.94c-.71,1.66-3.31,2.08-3.31,2.08h6.63s-2.6-.41-3.31-2.08Z"/>
        <path class="cls-1" d="m36.45,32.94c-.71,1.66-3.31,2.08-3.31,2.08h6.63s-2.6-.41-3.31-2.08Z"/>
        <path class="cls-1" d="m43.08,32.94c-.71,1.66-3.31,2.08-3.31,2.08h6.63s-2.6-.41-3.31-2.08Z"/>
      </g>
      <g>
        <path class="cls-1" d="m33.65,9.13s0,0,0,0l-10.46-4.47-10.46,4.47s0,0,0,0c-2.71,1.04-4.03-.31-4.03-.31l.84,6.53s.45-4.28,2.7-4.96l9.42-2.79,1.53,16.99,1.53-16.99,9.42,2.79c2.25.69,2.7,4.96,2.7,4.96l.84-6.53s-1.32,1.34-4.03.31Z"/>
        <path class="cls-1" d="m23.36,24.6h-.33l-1.51-16.79-9.22,2.73c-2.12.65-2.58,4.78-2.58,4.82l-.15,1.42-1.08-8.43.35.35c.05.05,1.28,1.25,3.85.27l10.52-4.49,10.52,4.49c2.56.98,3.8-.22,3.85-.27l.35-.35-1.08,8.42-.15-1.42s-.46-4.18-2.58-4.82l-9.22-2.73-1.51,16.79Zm-1.55-17.22l1.38,15.35,1.38-15.35,9.61,2.85c1.61.49,2.33,2.65,2.63,4l.65-5.03c-.56.36-1.84.86-3.87.09h0s-10.39-4.44-10.39-4.44l-10.39,4.44c-2.03.78-3.31.27-3.88-.09l.65,5.03c.3-1.35,1.02-3.51,2.63-4l9.61-2.85Z"/>
      </g>
    </g>
  </g>
</svg>